<?xml version="1.0" encoding="utf-8"?>
<!-- Generator: Adobe Illustrator 23.0.3, SVG Export Plug-In . SVG Version: 6.00 Build 0)  -->
<svg version="1.1" xmlns="http://www.w3.org/2000/svg" xmlns:xlink="http://www.w3.org/1999/xlink" x="0px" y="0px"
	 viewBox="0 0 4000 3000" style="enable-background:new 0 0 4000 3000;" xml:space="preserve">
<style type="text/css">
	.st0{fill:#EF6823;}
	.st1{fill:#243066;}
	.st2{fill:#E75224;}
	.st3{display:none;}
</style>
<g id="Calque_2">
	<g>
		<path class="st0" d="M1332.4,725.5c6.8-263.5,225.9-471.6,489.4-464.9c263.5,6.8,471.6,225.9,464.9,489.4
			c-0.2,7.7-0.6,15.3-1.1,22.8c-5.5-233.1-193.1-423.3-428.8-429.3c-243-6.2-445.1,185.7-451.4,428.8
			c-5.3,206.8,132.9,383.9,323.9,436C1498.9,1169.3,1326.3,965.9,1332.4,725.5z"/>
	</g>
	<g>
		<path class="st1" d="M2621.3,1520.1l-31.1,32.3c-27.1,28.1-71.9,29-100,1.8l-215.4-207.6c-24.8-23.9-28.4-61.5-10.3-89.4
			l-36.3-36.3c-10.3,9-21,17.6-32,25.9c-43.4,32.5-91.8,58.9-143.7,77.7c-59.3,21.5-123.3,33.2-190,33.2
			c-307.9,0-557.4-249.6-557.4-557.4c0-8.9,0.2-17.8,0.6-26.7c13.4,272,238.2,488.3,513.5,488.3c36.2,0,55-0.5,89-7.6
			c0-25.8-1-46.8-1-71.6V970.5c0-64.7,43.4-119.3,102.7-136.3c-28.2-16.9-47-47.7-47-82.9c0-36.6,20.4-68.4,50.4-84.8
			c13.7-7.5,29.4-11.7,46.1-11.7c53.3,0,96.5,43.2,96.5,96.5c0,28.7-12.6,54.6-32.5,72.2c-4.5,4-9.3,7.5-14.5,10.6
			c6.2,1.8,12.2,3.9,18,6.5c49.9,22,84.7,71.8,84.7,129.8v109.6c76-89.6,121.8-205.6,121.8-332.3c0-241.6-166.6-444.2-391.2-499.3
			c270.2,38.6,477.9,270.9,477.9,551.8c0,140.6-52.1,269.1-138,367.1l35.8,35.8c26.9-16.7,62.6-13.8,86.4,9.2l215.4,207.6
			C2647.6,1447.2,2648.4,1492,2621.3,1520.1z"/>
	</g>
	<g>
		<path class="st0" d="M1962.8,751.4c0,35.2,18.8,66,47,82.9c-59.3,17-102.7,71.5-102.7,136.3v57.4h-56.2
			c-17.6-31.2-46.8-55.1-81.7-65.8c22.4-14,37.4-38.9,37.4-67.2c0-43.7-35.4-79.2-79.2-79.2c-43.7,0-79.2,35.4-79.2,79.2
			c0,28.4,14.9,53.3,37.4,67.2c-22.3,6.9-42.3,19.1-58.4,35.3c-6.9,6.9-13.1,14.6-18.5,22.8V884.5c0-127.5,91.4-233.6,212.3-256.4
			c-47.6-19.2-81.2-65.9-81.2-120.3c0-71.6,58.1-129.7,129.7-129.7c71.6,0,129.7,58.1,129.7,129.7c0,54.5-33.6,101.1-81.2,120.3
			c34.6,6.5,66.7,19.8,95,38.5C1983.1,683,1962.8,714.8,1962.8,751.4z"/>
	</g>
	<g>
		<path class="st2" d="M2126.8,840.8c-5.8-2.6-11.8-4.7-18-6.5c5.2-3.1,10-6.6,14.5-10.6C2124.6,829.3,2125.8,835,2126.8,840.8z"/>
	</g>
	<g>
		<path class="st0" d="M786.9,2080c-3.9,20.4-23.7,88.8-30.3,109.2H450.8v-18.4c59.9-5.9,65.1-9.2,65.1-65.1v-261.1
			c0-55.9-6.6-59.2-59.2-64.5v-18.4H633v18.4c-52.6,5.3-59.9,7.9-59.9,64.5v267.7c0,40.1,5.3,49.3,42.8,50c0.7,0,48,0.7,52,0.7
			c33.5,0,43.4-3.9,58.5-20.4c16.4-17.1,30.3-43.4,40.1-67.7L786.9,2080z"/>
		<path class="st0" d="M1071.7,2133.3c-42.1,52.6-88.1,63.8-109.2,63.8c-80.2,0-128.9-65.8-128.9-141.4c0-44.7,15.8-86.2,42.8-115.1
			c27.6-30.9,63.8-48,98-48c57.2,0,100.6,49.3,100.6,101.9c-0.7,13.2-2.6,19.1-13.2,21.7c-13.2,2.6-97.3,8.5-175.6,11.2
			c-2,88.1,52,124.3,98.7,124.3c27,0,52-11.2,76.3-33.5L1071.7,2133.3z M958.6,1917.5c-30.3,0-59.9,28.3-69.1,81.6
			c36.8,0,73.7,0,112.5-2c11.8,0,15.8-3.3,15.8-13.2C1018.4,1949.1,995.4,1917.5,958.6,1917.5z"/>
		<path class="st0" d="M1323.6,1957.7c63.1,10.5,114.4,40.8,114.4,104.6c0,44.7-25,80.2-63.8,101.3c-34.2,19.1-67.7,25.7-113.8,25.7
			h-161.8v-18.4c55.9-5.3,59.2-11.2,59.2-63.1v-263.7c0-54.6-5.9-59.2-59.2-63.8v-18.4H1271c49.3,0,80.2,8.6,101.3,23
			c23,15.8,38.8,40.1,38.8,73.7C1411.1,1920.2,1360.4,1948.4,1323.6,1957.7z M1248,1949.8c72.3,0,101.9-28.9,101.9-82.9
			c0-46-28.3-81.6-91.4-81.6c-18.4,0-30.3,2-36.8,6.6c-5.3,3.9-7.2,11.2-7.2,32.2v125.6H1248z M1214.4,2106.3
			c0,47.4,11.2,59.2,57.9,59.2c51.3,0,101.3-27.6,101.3-96.7c0-67.1-47.4-96-127.6-96h-31.6V2106.3z"/>
		<path class="st0" d="M1636.7,1892.5c82.2,0,143.4,62.5,143.4,147.3c0,106.6-78.9,157.2-143.4,157.2c-90.8,0-146-73-146-146.7
			C1490.6,1943.2,1574.2,1892.5,1636.7,1892.5z M1628.8,1914.9c-40.1,0-76.3,38.8-76.3,115.1c0,83.5,36.8,144,90.8,144
			c40.8,0,75-29.6,75-119.7C1718.2,1977.4,1686.6,1914.9,1628.8,1914.9z"/>
		<path class="st0" d="M2007,2189.2v-18.4c38.1-3.9,42.1-8.5,42.1-53.3V2009c0-46-16.4-77-59.9-77c-27,0-52.6,15.8-73,34.2v153.9
			c0,45.4,3.9,46.7,42.8,50.6v18.4h-142.1v-18.4c43.4-4.6,47.4-7.2,47.4-50.6v-135.5c0-42.8-4.6-44.7-40.1-50.6v-17.1
			c32.2-5.3,64.5-13.8,92.1-26.3c0,15.1,0,36.2,0,52c13.2-9.2,27.6-19.1,44.7-30.3c18.4-11.8,35.5-19.7,54.6-19.7
			c52.6,0,85.5,38.8,85.5,102.6v125c0,44.7,3.9,46.7,42.1,50.6v18.4H2007z"/>
		<path class="st0" d="M2401.6,1861.6c-11.2-43.4-29.6-86.2-91.4-86.2c-51.3,0-69.1,37.5-69.1,71.7c0,45.4,28.9,68.4,83.5,96.7
			c78.9,40.8,113.1,71,113.1,133.5c0,69.1-59.9,121.7-144.7,121.7c-39.5,0-73.7-11.2-100.6-21.7c-5.3-18.4-13.2-63.1-17.8-98.7
			l20.4-5.3c13.2,44.1,42.1,101.3,110.5,101.3c47.4,0,76.3-32.9,76.3-75.6c0-50.6-27-71-84.8-102.6
			c-69.1-37.5-107.9-69.1-107.9-130.2c0-58.5,48.7-113.8,135.5-113.8c36.8,0,73,9.9,86.8,12.5c2.6,23.7,5.3,50,10.5,92.7
			L2401.6,1861.6z"/>
		<path class="st0" d="M2602.2,2188.5c-11.2,5.9-21.7,8.5-28.3,8.5c-42.1,0-64.5-25.7-64.5-78.3v-191.4h-45.4l-2.6-7.9l17.8-19.1
			h30.3v-55.2c12.5-13.2,31.6-30.3,44.1-43.4l9.9,1.3c-1.3,27.6-2,65.8-2,97.3h75c5.9,6.6,3.9,21-3.9,27h-71v168.4
			c0,53.3,21,63.1,38.1,63.1c15.8,0,30.9-5.9,40.1-10.5l5.9,17.1L2602.2,2188.5z"/>
		<path class="st0" d="M2879.7,2197.1c-9.9,0-24.3-5.3-30.9-12.5c-8.5-8.6-12.5-17.8-15.8-29.6c-26.3,17.8-58.5,42.1-78.9,42.1
			c-46.7,0-80.2-38.8-80.2-80.9c0-32.2,17.8-53.3,53.9-65.8c40.1-13.8,89.5-30.9,103.9-42.8v-13.2c0-46.7-23.7-73.7-57.9-73.7
			c-15.1,0-24.3,7.2-30.9,15.1c-7.2,9.2-11.8,23.7-17.8,42.8c-3.3,10.5-9.2,15.1-19.1,15.1c-12.5,0-28.9-13.2-28.9-28.9
			c0-9.2,8.6-17.1,21.7-26.3c19.1-13.8,57.2-38.1,94.7-46c19.7,0,40.1,5.9,55.2,17.8c23,19.7,33.5,42.1,33.5,76.3v126.9
			c0,30.3,11.2,39.5,23,39.5c7.9,0,16.4-3.3,23.7-7.2l6.6,18.4L2879.7,2197.1z M2831.7,2030.7c-14.5,7.2-46,21-61.2,27.6
			c-25,11.2-40.1,23.7-40.1,48c0,34.9,26.3,50.6,47.4,50.6c17.1,0,40.8-10.5,53.9-23.7C2831.7,2102.4,2831.7,2061.6,2831.7,2030.7z"
			/>
		<path class="st0" d="M3045.5,2093.1c-15.8,12.5-21.7,25-21.7,32.9c0,11.8,11.2,25,40.8,25c24.3,0,52-0.7,73.7-0.7
			c42.1,0,96,13.8,96,78.9c0,68.4-80.9,132.9-168.4,132.9c-74.3,0-114.4-43.4-115.8-82.2c0-14.5,5.9-27,16.4-37.5
			c13.2-13.8,38.8-35.5,53.9-47.4c-23.7-6.6-40.8-21.7-49.3-35.5c-5.9-9.9-7.9-21.7-7.9-28.3c25-9.2,47.4-27.6,60.5-45.4
			L3045.5,2093.1z M3077.1,2099.7c-61.2,0-111.8-37.5-111.8-99.3c0-75,67.1-109.8,118.4-109.8c21.7,0,43.4,5.9,63.1,16.4
			c30.3,0,69.7-5.3,88.1-9.9l3.9,5.9c-3.9,10.5-14.5,28.9-24.3,34.9c-9.9,0-31.6-2.6-40.8-3.3c11.2,15.1,19.1,36.2,19.1,59.9
			C3192.8,2066.2,3133.6,2099.7,3077.1,2099.7z M3092.2,2197.1c-32.2,0-46.7,3.9-58.5,13.8c-18.4,15.1-31.6,34.9-31.6,53.9
			c0,36.2,37.5,63.1,88.1,63.1c62.5,0,98-32.2,98-74.3c0-22.4-10.5-40.1-28.9-48C3142.8,2198.4,3119.8,2197.1,3092.2,2197.1z
			 M3077.1,1911.6c-29.6,0-55.9,27-55.9,78.9c0,52,26.3,88.1,62.5,88.1c28.9-1.3,54.6-25.7,54.6-78.9
			C3138.2,1948.4,3113.9,1911.6,3077.1,1911.6z"/>
		<path class="st0" d="M3492.1,2133.3c-42.1,52.6-88.1,63.8-109.2,63.8c-80.2,0-128.9-65.8-128.9-141.4c0-44.7,15.8-86.2,42.8-115.1
			c27.6-30.9,63.8-48,98-48c57.2,0,100.6,49.3,100.6,101.9c-0.7,13.2-2.6,19.1-13.2,21.7c-13.2,2.6-97.3,8.5-175.6,11.2
			c-2,88.1,52,124.3,98.7,124.3c27,0,52-11.2,76.3-33.5L3492.1,2133.3z M3379,1917.5c-30.3,0-59.9,28.3-69.1,81.6
			c36.8,0,73.7,0,112.5-2c11.8,0,15.8-3.3,15.8-13.2C3438.8,1949.1,3415.8,1917.5,3379,1917.5z"/>
	</g>
	<g>
		<path class="st1" d="M395.5,2588.2H313l2.5-21.9H398L395.5,2588.2z"/>
		<path class="st1" d="M526.8,2658.6v-10c39.8-2.5,42-4.3,42-31.2v-137.8c0-18.3-2.5-19-18.3-20.4l-17.6-1.8v-9
			c23.7-3.9,47.4-9.7,65.7-17.6v186.6c0,27.3,2.2,28.7,42.3,31.2v10H526.8z"/>
		<path class="st1" d="M754.2,2510c19.4-2.9,37.3-7.5,52.7-14c0,16.1,0,32.3,0,48.8v74.3c0,24-1.4,39.1-8.3,58.5
			c-12.6,35.9-34.8,62.8-43.1,70c-3.6,2.9-6.5,3.9-9.3,3.9c-5.4,0-13.3-7.5-13.3-16.1c0-4.7,1.4-6.8,5.7-8.3
			c13.3-3.6,22.6-7.2,27.6-13.6c4.3-5,7.2-12.9,9.3-25.1c2.2-15.1,2.9-36.6,2.9-69.6v-71c0-24-1.8-25.5-24.4-28.7V2510z
			 M791.2,2460.2c-10,0-18.3-8.6-18.3-18.3c0-11.1,8.3-19,18.7-19c9.7,0,17.6,7.9,17.6,19C809.1,2451.6,801.2,2460.2,791.2,2460.2z"
			/>
		<path class="st1" d="M973.4,2628.1c-23,28.7-48.1,34.8-59.6,34.8c-43.8,0-70.3-35.9-70.3-77.1c0-24.4,8.6-47,23.3-62.8
			c15.1-16.9,34.8-26.2,53.5-26.2c31.2,0,54.9,26.9,54.9,55.6c-0.4,7.2-1.4,10.4-7.2,11.8c-7.2,1.4-53.1,4.7-95.8,6.1
			c-1.1,48.1,28.3,67.8,53.8,67.8c14.7,0,28.3-6.1,41.6-18.3L973.4,2628.1z M911.7,2510.4c-16.5,0-32.6,15.4-37.7,44.5
			c20.1,0,40.2,0,61.3-1.1c6.5,0,8.6-1.8,8.6-7.2C944.4,2527.6,931.8,2510.4,911.7,2510.4z"/>
		<path class="st1" d="M1168.2,2650.3c-17.2,2.5-36.6,7.2-54.9,12.6c0-5.7,0-18.7,0-27.6c-19.4,16.1-35.2,27.6-54.9,27.6
			c-24,0-44.8-14.7-44.8-53.8v-69.6c0-19.4-2.9-21.5-11.8-23.3l-10-1.8v-9.3c15.4-0.7,39.1-4.3,51.3-6.5
			c-1.1,11.5-1.1,28.7-1.1,52.4v48.8c0,31.6,16.5,40.5,32.6,40.5c13.3,0,26.5-5.7,38.7-17.2v-83.6c0-19.4-4.3-21.9-16.5-23.7
			l-11.5-1.4v-9.3c23-1.1,48.1-5,56.3-6.5v120.2c0,17.9,2.9,20.4,16.5,21.2l10,0.4V2650.3z"/>
		<path class="st1" d="M1284.5,2658.6v-10c20.8-2.2,23-4.7,23-29.1v-59.2c0-25.1-9-42-32.6-42c-14.7,0-28.7,8.6-39.8,18.7v84
			c0,24.8,2.2,25.5,23.3,27.6v10h-77.5v-10c23.7-2.5,25.8-3.9,25.8-27.6V2547c0-23.3-2.5-24.4-21.9-27.6v-9.3
			c17.6-2.9,35.2-7.5,50.2-14.4c0,8.3,0,19.7,0,28.3c7.2-5,15.1-10.4,24.4-16.5c10-6.5,19.4-10.8,29.8-10.8
			c28.7,0,46.6,21.2,46.6,56v68.2c0,24.4,2.2,25.5,23,27.6v10H1284.5z"/>
		<path class="st1" d="M1505.5,2628.1c-23,28.7-48.1,34.8-59.6,34.8c-43.8,0-70.3-35.9-70.3-77.1c0-24.4,8.6-47,23.3-62.8
			c15.1-16.9,34.8-26.2,53.5-26.2c31.2,0,54.9,26.9,54.9,55.6c-0.4,7.2-1.4,10.4-7.2,11.8c-7.2,1.4-53.1,4.7-95.8,6.1
			c-1.1,48.1,28.3,67.8,53.8,67.8c14.7,0,28.3-6.1,41.6-18.3L1505.5,2628.1z M1443.8,2510.4c-16.5,0-32.6,15.4-37.7,44.5
			c20.1,0,40.2,0,61.3-1.1c6.5,0,8.6-1.8,8.6-7.2C1476.4,2527.6,1463.8,2510.4,1443.8,2510.4z"/>
		<path class="st1" d="M1532.4,2690.8c16.1-7.5,28.7-17.2,28.7-30.9c0-12.6-10.4-16.1-23-19.4c-2.2-0.4-5.7-4.7-5.7-11.1
			c0-9,6.8-17.9,20.1-17.9c12.9,0,30.5,11.8,30.5,38c0,28.3-25.1,45.6-45.9,51.7L1532.4,2690.8z"/>
		<path class="st1" d="M1867.8,2649.6c-7.5,1.4-34.4,5.7-55.6,13.3c0-7.5,0-15.8,0-23.3c-6.5,3.9-15.8,9-22.2,12.9
			c-14.4,8.3-24,10.4-28.3,10.4c-28.7,0-66.7-28.7-66.7-78.9c0-49.9,43.8-87.2,92.9-87.2c5,0,16.9,0.7,24.4,3.9V2448
			c0-23-2.5-23.7-28-25.8v-9.3c17.9-2.5,43.1-7.5,56.3-12.2c0,13.3,0,29.1,0,43.8v172.6c0,18.7,2.5,21.2,15.8,21.9l11.5,0.7V2649.6z
			 M1812.2,2529c-8.3-12.6-23.7-18.3-37.7-18.3c-17.2,0-47.7,11.5-47.7,63.1c0,43.4,26.9,66.4,49.9,66.7c12.9,0,26.9-6.5,35.5-12.9
			V2529z"/>
		<path class="st1" d="M2010.6,2628.1c-23,28.7-48.1,34.8-59.6,34.8c-43.8,0-70.3-35.9-70.3-77.1c0-24.4,8.6-47,23.3-62.8
			c15.1-16.9,34.8-26.2,53.5-26.2c31.2,0,54.9,26.9,54.9,55.6c-0.4,7.2-1.4,10.4-7.2,11.8c-7.2,1.4-53.1,4.7-95.8,6.1
			c-1.1,48.1,28.3,67.8,53.8,67.8c14.7,0,28.3-6.1,41.6-18.3L2010.6,2628.1z M1948.9,2510.4c-16.5,0-32.6,15.4-37.7,44.5
			c20.1,0,40.2,0,61.3-1.1c6.5,0,8.6-1.8,8.6-7.2C1981.5,2527.6,1969,2510.4,1948.9,2510.4z"/>
		<path class="st1" d="M2122.9,2543.8c-6.5-20.8-15.8-35.2-37.7-35.2c-12.6,0-22.2,9-22.2,23.3c0,15.4,10.4,22.6,30.5,31.9
			c30.9,14.7,46.3,25.5,46.3,49.2c0,33-30.1,49.9-58.5,49.9c-18.7,0-35.2-5.7-42.7-10c-1.8-10.4-5-30.1-6.5-42l10.4-1.8
			c6.5,23,19,41.6,44.1,41.6c13.6,0,25.1-9.3,25.1-24.4c0-16.1-9.7-24.4-28.7-33.7c-25.1-12.2-45.6-23.7-45.6-49.5
			c0-26.2,22.2-46.3,56-46.3c15.1,0,27.3,3.6,34.4,4.7c1.1,8.6,3.6,31.2,5.4,39.8L2122.9,2543.8z"/>
		<path class="st1" d="M2330.9,2543.8c-6.5-20.8-15.8-35.2-37.7-35.2c-12.6,0-22.2,9-22.2,23.3c0,15.4,10.4,22.6,30.5,31.9
			c30.9,14.7,46.3,25.5,46.3,49.2c0,33-30.1,49.9-58.5,49.9c-18.7,0-35.2-5.7-42.7-10c-1.8-10.4-5-30.1-6.5-42l10.4-1.8
			c6.5,23,19,41.6,44.1,41.6c13.6,0,25.1-9.3,25.1-24.4c0-16.1-9.7-24.4-28.7-33.7c-25.1-12.2-45.6-23.7-45.6-49.5
			c0-26.2,22.2-46.3,56-46.3c15.1,0,27.3,3.6,34.4,4.7c1.1,8.6,3.6,31.2,5.4,39.8L2330.9,2543.8z"/>
		<path class="st1" d="M2449.3,2496.8c44.8,0,78.2,34.1,78.2,80.4c0,58.1-43.1,85.7-78.2,85.7c-49.5,0-79.6-39.8-79.6-80
			C2369.7,2524.4,2415.2,2496.8,2449.3,2496.8z M2445,2509c-21.9,0-41.6,21.2-41.6,62.8c0,45.6,20.1,78.6,49.5,78.6
			c22.2,0,40.9-16.1,40.9-65.3C2493.8,2543,2476.6,2509,2445,2509z"/>
		<path class="st1" d="M2543,2658.6v-10c23-2.2,25.8-3.9,25.8-27.6V2449c0-21.9-1.8-24-24.8-26.9v-9.3c19.4-2.2,41.6-7.9,53.1-12.2
			c0,16.9,0,34.1,0,50.9v169.3c0,23.7,2.2,25.5,25.5,27.6v10H2543z"/>
		<path class="st1" d="M2809.2,2650.3c-17.2,2.5-36.6,7.2-54.9,12.6c0-5.7,0-18.7,0-27.6c-19.4,16.1-35.2,27.6-54.9,27.6
			c-24,0-44.8-14.7-44.8-53.8v-69.6c0-19.4-2.9-21.5-11.8-23.3l-10-1.8v-9.3c15.4-0.7,39.1-4.3,51.3-6.5
			c-1.1,11.5-1.1,28.7-1.1,52.4v48.8c0,31.6,16.5,40.5,32.6,40.5c13.3,0,26.5-5.7,38.7-17.2v-83.6c0-19.4-4.3-21.9-16.5-23.7
			l-11.5-1.4v-9.3c23-1.1,48.1-5,56.3-6.5v120.2c0,17.9,2.9,20.4,16.5,21.2l10,0.4V2650.3z"/>
		<path class="st1" d="M2892.7,2658.2c-6.1,3.2-11.8,4.7-15.4,4.7c-23,0-35.2-14-35.2-42.7v-104.4h-24.8l-1.4-4.3l9.7-10.4h16.5
			v-30.1c6.8-7.2,17.2-16.5,24-23.7l5.4,0.7c-0.7,15.1-1.1,35.9-1.1,53.1h40.9c3.2,3.6,2.2,11.5-2.2,14.7h-38.7v91.8
			c0,29.1,11.5,34.4,20.8,34.4c8.6,0,16.9-3.2,21.9-5.7l3.2,9.3L2892.7,2658.2z"/>
		<path class="st1" d="M2926.5,2658.6v-10c22.6-2.2,25.1-3.9,25.1-28.3v-73.9c0-22.2-1.1-23.7-22.6-27.3v-8.6
			c18.7-3.2,35.5-7.9,50.9-14.4c0,15.1,0,30.1,0,45.2v78.9c0,24.4,2.5,26.2,25.8,28.3v10H2926.5z M2963.8,2460.9c-10,0-19-9-19-19
			c0-11.5,9-19.7,19.4-19.7c10,0,18.3,8.3,18.3,19.7C2982.4,2451.9,2974.2,2460.9,2963.8,2460.9z"/>
		<path class="st1" d="M3099.4,2496.8c44.8,0,78.2,34.1,78.2,80.4c0,58.1-43.1,85.7-78.2,85.7c-49.5,0-79.6-39.8-79.6-80
			C3019.7,2524.4,3065.3,2496.8,3099.4,2496.8z M3095.1,2509c-21.9,0-41.6,21.2-41.6,62.8c0,45.6,20.1,78.6,49.5,78.6
			c22.2,0,40.9-16.1,40.9-65.3C3143.9,2543,3126.6,2509,3095.1,2509z"/>
		<path class="st1" d="M3299.2,2658.6v-10c20.8-2.2,23-4.7,23-29.1v-59.2c0-25.1-9-42-32.6-42c-14.7,0-28.7,8.6-39.8,18.7v84
			c0,24.8,2.2,25.5,23.3,27.6v10h-77.5v-10c23.7-2.5,25.8-3.9,25.8-27.6V2547c0-23.3-2.5-24.4-21.9-27.6v-9.3
			c17.6-2.9,35.2-7.5,50.2-14.4c0,8.3,0,19.7,0,28.3c7.2-5,15.1-10.4,24.4-16.5c10-6.5,19.4-10.8,29.8-10.8
			c28.7,0,46.6,21.2,46.6,56v68.2c0,24.4,2.2,25.5,23,27.6v10H3299.2z"/>
		<path class="st1" d="M3479.7,2543.8c-6.5-20.8-15.8-35.2-37.7-35.2c-12.6,0-22.2,9-22.2,23.3c0,15.4,10.4,22.6,30.5,31.9
			c30.9,14.7,46.3,25.5,46.3,49.2c0,33-30.1,49.9-58.5,49.9c-18.7,0-35.2-5.7-42.7-10c-1.8-10.4-5-30.1-6.5-42l10.4-1.8
			c6.5,23,19,41.6,44.1,41.6c13.6,0,25.1-9.3,25.1-24.4c0-16.1-9.7-24.4-28.7-33.7c-25.1-12.2-45.6-23.7-45.6-49.5
			c0-26.2,22.2-46.3,56-46.3c15.1,0,27.3,3.6,34.4,4.7c1.1,8.6,3.6,31.2,5.4,39.8L3479.7,2543.8z"/>
		<path class="st1" d="M3684.5,2588.2H3602l2.5-21.9h82.5L3684.5,2588.2z"/>
	</g>
</g>
<g id="Calque_1" class="st3">
	
		<image style="display:inline;overflow:visible;opacity:0.2;" width="117" height="89" xlink:href="A24DBE18.jpg"  transform="matrix(25.2586 0 0 25.2586 484.013 405.2221)">
	</image>
</g>
</svg>
